<svg viewBox="0 0 91 91" xml:space="preserve" xmlns="http://www.w3.org/2000/svg"><path d="M18.986 64.229c10.325 0 18.726-8.402 18.726-18.731 0-10.327-8.4-18.728-18.726-18.728C8.656 26.77.251 35.171.251 45.498c0 10.329 8.405 18.731 18.735 18.731zm0-32.433c7.555 0 13.7 6.147 13.7 13.703 0 7.557-6.146 13.706-13.7 13.706-7.56 0-13.709-6.148-13.709-13.706 0-7.556 6.15-13.703 13.709-13.703z" fill="#fcfaf9" class="fill-000000"></path><path d="M62.962 45.5c0-5.058-3.879-9.222-8.817-9.684-4.22-13.924-16.984-23.485-31.722-23.485a33.188 33.188 0 0 0-16.127 4.186 2.513 2.513 0 0 0 2.447 4.389 28.151 28.151 0 0 1 13.68-3.549c12.292 0 22.969 7.836 26.729 19.323-3.33 1.546-5.65 4.914-5.65 8.821s2.319 7.273 5.649 8.82c-3.766 11.482-14.447 19.322-26.729 19.322a28.145 28.145 0 0 1-13.683-3.549 2.513 2.513 0 0 0-2.448 4.389 33.188 33.188 0 0 0 16.131 4.186c14.724 0 27.499-9.564 31.725-23.484 4.938-.465 8.815-4.629 8.815-9.685zm-9.73-4.705c2.594 0 4.704 2.11 4.704 4.705s-2.11 4.704-4.704 4.704c-2.595 0-4.705-2.109-4.705-4.704s2.111-4.705 4.705-4.705z" fill="#fcfaf9" class="fill-000000"></path><path d="M74.481 39.748a51.736 51.736 0 0 0-6.477-20.085A52.475 52.475 0 0 0 57.289 6.398a2.513 2.513 0 0 0-3.346 3.75 47.455 47.455 0 0 1 9.691 11.996 46.788 46.788 0 0 1 5.836 17.982 6.129 6.129 0 0 0-3.19 5.374 6.13 6.13 0 0 0 3.189 5.373c-1.305 11.561-6.791 22.183-15.526 29.98a2.511 2.511 0 0 0 1.674 4.387 2.5 2.5 0 0 0 1.672-.639c9.709-8.667 15.79-20.488 17.194-33.353 2.353-.854 4.04-3.105 4.04-5.749.001-2.645-1.688-4.897-4.042-5.751zm-2.077 4.654a1.099 1.099 0 0 1 1.095 1.097 1.097 1.097 0 0 1-2.193 0c0-.59.469-1.065 1.052-1.089.016 0 .031-.006.046-.008zM86.646 41.402c-2.261 0-4.101 1.838-4.101 4.097s1.84 4.097 4.101 4.097c2.262 0 4.102-1.838 4.102-4.097s-1.84-4.097-4.102-4.097z" fill="#fcfaf9" class="fill-000000"></path></svg>