<svg viewBox="0 0 32 32" xml:space="preserve" xmlns="http://www.w3.org/2000/svg" enable-background="new 0 0 32 32"><path d="M24 4c-3.3 0-6.1 2.3-6.8 5.4h0c-2.3 0-4.3 1.9-4.3 4.3s1.9 4.3 4.3 4.3H24c3.8 0 7-3.1 7-7s-3.1-7-7-7zM6.5 20c1.7 0 3 1.2 3.4 2.7h0c1.2 0 2.1 1 2.1 2.1C12 26 11 27 9.9 27H6.5C4.6 27 3 25.4 3 23.5S4.6 20 6.5 20z" fill="none" stroke="#fcfaf9" stroke-width="2" stroke-linecap="round" stroke-linejoin="round" stroke-miterlimit="10" class="stroke-000000"></path><path d="M4 21c-.6-1.5-1-3.2-1-5C3 8.8 8.8 3 16 3c2.1 0 4.1.5 5.8 1.4M29 16c0 7.2-5.8 13-13 13-2.5 0-4.9-.7-6.9-2" fill="none" stroke="#fcfaf9" stroke-width="2" stroke-linecap="round" stroke-linejoin="round" stroke-miterlimit="10" class="stroke-000000"></path></svg>