<svg viewBox="0 0 91 91" xml:space="preserve" xmlns="http://www.w3.org/2000/svg"><path d="M10.14 31.51c.004.004.006.01.012.014l.014.013 9.381 9.378a2.509 2.509 0 0 0 3.552 0l7.137-7.135 3.84 3.84-9.744 9.744a2.517 2.517 0 0 0 0 3.555l6.254 6.254-2.42 2.422a19.433 19.433 0 0 0-11.688-3.938c-4.201 0-8.023 1.414-10.488 3.877a2.517 2.517 0 0 0-.738 1.777c0 .666.266 1.305.736 1.777l9.342 9.34-.895.895a2.513 2.513 0 0 0 3.55 3.555l.896-.895 9.34 9.34a2.512 2.512 0 0 0 3.554 0c4.848-4.848 5.563-14.859-.053-22.184l2.414-2.412 6.254 6.254a2.51 2.51 0 0 0 3.554 0l9.747-9.748 3.578 3.578-7.141 7.141c-.98.98-.98 2.57 0 3.553l9.379 9.377c.004.006.006.012.012.016l.014.012 9.375 9.375a2.5 2.5 0 0 0 1.778.715c.645 0 1.287-.227 1.777-.717l8.914-8.914h.002v-.002l8.916-8.914c.471-.471.705-1.113.705-1.781 0-.666-.234-1.301-.705-1.771l-9.377-9.377-.012-.016-.016-.012-9.377-9.377c-.941-.943-2.611-.941-3.553 0l-7.137 7.137-3.576-3.576 14.236-14.242a13.768 13.768 0 0 0 4.057-9.809c0-3.715-1.441-7.197-4.053-9.807-2.609-2.611-6.09-4.051-9.805-4.051-3.699 0-7.17 1.43-9.777 4.022-.012.011-.023.017-.035.028l-.016.018-14.226 14.228-3.84-3.84 7.143-7.143a2.513 2.513 0 0 0 0-3.553L22.15.75a2.513 2.513 0 0 0-3.553.001L.765 18.584c-.98.98-.98 2.571 0 3.553l9.375 9.373zm19.524 48.146L11.658 61.65c1.365-.629 3.025-.969 4.82-.969 3.775 0 7.438 1.496 10.047 4.104 4.307 4.309 5.019 10.817 3.139 14.871zm31.16-15.293 5.836 5.838-5.361 5.363-5.838-5.838 5.363-5.363zm9.862 20.59-5.834-5.836 5.361-5.361 5.836 5.836-5.363 5.361zm8.916-8.914-5.834-5.838 5.361-5.361 5.836 5.836-5.363 5.363zm-9.864-20.59 5.836 5.838-5.359 5.361-5.838-5.838 5.361-5.361zm-1.804-32.073a8.766 8.766 0 0 1 2.582 6.253c0 2.37-.916 4.591-2.582 6.254L42.169 61.65l-6.248-6.248c-.002-.002-.004-.004-.004-.006-.002-.002-.004-.004-.006-.004l-6.25-6.252L53.65 25.153l6.254 6.253c.492.491 1.135.735 1.777.735s1.285-.245 1.777-.736c.98-.98.98-2.572-.002-3.553l-5.994-5.992a8.835 8.835 0 0 1 4.221-1.063c2.372 0 4.59.915 6.251 2.579zM21.322 35.585l-5.84-5.839 5.363-5.361 5.838 5.84-5.361 5.36zm8.914-8.913-5.838-5.84 5.365-5.363 5.838 5.838-5.365 5.365zM20.373 6.081l5.836 5.836-5.363 5.363-5.834-5.836 5.361-5.363zm-8.915 8.916 5.834 5.836-5.363 5.361-5.834-5.834 5.363-5.363zM11.189 83.674l1.395-1.396a2.51 2.51 0 0 0 0-3.553 2.514 2.514 0 0 0-3.553 0l-1.395 1.396a2.51 2.51 0 0 0 1.775 4.289c.645 0 1.288-.246 1.778-.736zM3.462 90.359a2.5 2.5 0 0 0 1.777-.738l.547-.547a2.512 2.512 0 1 0-3.557-3.549l-.547.547a2.512 2.512 0 0 0 1.78 4.287z" fill="#fcfaf9" class="fill-000000"></path></svg>