<svg viewBox="0 0 30 30" xmlns="http://www.w3.org/2000/svg"><g data-name="Layer 2"><path d="m15.78 14.07 1.46 4.14a.82.82 0 0 0 .74.56l4.22.23a.87.87 0 0 1 .48 1.54l-3.31 2.74a.9.9 0 0 0-.29.91l1.15 4.26a.84.84 0 0 1-1.26 1l-3.51-2.55a.78.78 0 0 0-.92 0L11 29.35a.84.84 0 0 1-1.26-1l1.15-4.26a.9.9 0 0 0-.29-.91l-3.28-2.69A.87.87 0 0 1 7.8 19l4.2-.23a.82.82 0 0 0 .74-.56l1.46-4.14a.82.82 0 0 1 1.58 0ZM7.08.92 8.18 4a.63.63 0 0 0 .56.43l3.16.13a.65.65 0 0 1 .36 1.16L9.78 7.8a.65.65 0 0 0-.22.68l.86 3.19a.63.63 0 0 1-.94.72l-2.64-1.84a.57.57 0 0 0-.68 0l-2.64 1.84a.63.63 0 0 1-.94-.72l.86-3.19a.65.65 0 0 0-.22-.68l-2.48-2a.65.65 0 0 1 .36-1.21l3.16-.13A.63.63 0 0 0 4.82 4L5.92.92a.61.61 0 0 1 1.16 0ZM24.08.92 25.18 4a.63.63 0 0 0 .56.43l3.16.13a.65.65 0 0 1 .36 1.16L26.78 7.8a.65.65 0 0 0-.22.68l.86 3.19a.63.63 0 0 1-.94.72l-2.64-1.84a.57.57 0 0 0-.68 0l-2.64 1.84a.63.63 0 0 1-.94-.72l.86-3.19a.65.65 0 0 0-.22-.68l-2.48-2a.65.65 0 0 1 .36-1.16l3.16-.13a.63.63 0 0 0 .56-.51l1.1-3.08a.61.61 0 0 1 1.16 0Z" fill="none" stroke="#fcfaf9" stroke-linecap="round" stroke-linejoin="round" class="stroke-000000"></path></g></svg>