<svg viewBox="0 0 32 32" xml:space="preserve" xmlns="http://www.w3.org/2000/svg" enable-background="new 0 0 32 32"><circle cx="16" cy="16" r="9" fill="none" stroke="#fcfaf9" stroke-width="2" stroke-linecap="round" stroke-linejoin="round" stroke-miterlimit="10" class="stroke-000000"></circle><path d="M20 1h0c.3 3.4 3.9 5.4 7 4h0c-1.4 3.1.6 6.6 4 7h0c-2.8 2-2.8 6.1 0 8h0c-3.4.3-5.4 3.9-4 7h0c-3.1-1.4-6.6.6-7 4h0c-2-2.8-6.1-2.8-8 0h0c-.3-3.4-3.9-5.4-7-4h0c1.4-3.1-.6-6.6-4-7h0c2.8-2 2.8-6.1 0-8h0c3.4-.3 5.4-3.9 4-7h0c3.1 1.4 6.6-.6 7-4h0c1.9 2.8 6.1 2.8 8 0z" fill="none" stroke="#fcfaf9" stroke-width="2" stroke-linecap="round" stroke-linejoin="round" stroke-miterlimit="10" class="stroke-000000"></path></svg>