<svg viewBox="0 0 91 91" xml:space="preserve" xmlns="http://www.w3.org/2000/svg"><path d="M90.393 41.569 82.962 5.58a2.51 2.51 0 0 0-2.969-1.952L55.794 8.625a2.514 2.514 0 0 0-1.953 2.969l.832 4.028-31.027 6.406-.531-2.574 5.244-1.08a2.513 2.513 0 0 0-1.014-4.922l-7.681 1.582c-.009.002-.018.001-.026.003l-.025.008-7.679 1.582a2.513 2.513 0 0 0 1.014 4.922l5.245-1.081.531 2.576-5.192 1.072a2.513 2.513 0 0 0-1.953 2.969l.858 4.151-9.877 2.04a2.512 2.512 0 0 0-1.953 2.968l2.261 10.971a2.518 2.518 0 0 0 2.461 2.006c.169 0 .339-.018.508-.053l9.885-2.039.858 4.154a2.514 2.514 0 0 0 2.969 1.951l23.844-4.926v13.705L28.535 83.741a2.513 2.513 0 1 0 4.148 2.835l10.709-15.661V82.91a2.513 2.513 0 1 0 5.026 0V71.104L59.639 86.63a2.507 2.507 0 0 0 3.508.564 2.51 2.51 0 0 0 .564-3.508L48.429 62.54c-.004-.038-.006-.076-.011-.113V47.271l12.268-2.534.588 2.845a2.514 2.514 0 0 0 2.969 1.952l24.197-4.997a2.512 2.512 0 0 0 1.953-2.968zm-83.111 2.17L6.035 37.69l7.363-1.52 1.252 6.049-7.368 1.52zm13.711 4.066L17.008 28.53l5.18-1.069.013-.001.013-.004 33.424-6.901 3.98 19.273-38.625 7.977zm44.694-3.7-6.416-31.067 19.278-3.982 6.414 31.068-19.276 3.981z" fill="#fcfaf9" class="fill-000000"></path><path d="m73.475 14.21-8.527 1.759a2.513 2.513 0 0 0 1.016 4.92l8.527-1.759a2.513 2.513 0 0 0-1.016-4.92z" fill="#fcfaf9" class="fill-000000"></path></svg>